# xmcd
#
# Track frame offsets:
#	150
#	21510
#	36445
#	64360
#	77170
#	98035
#	122850
#	140920
#	159180
#	180445
#	202670
#	215130
#
# Disc length: 3219 seconds
#
# Revision: 3
# Processed by: cddbd v1.5.1PL0 Copyright (c) Steve Scherf et al.
# Submitted via: EasyCDDAExtractor 5.1.0
#
DISCID=ad0c910c
DTITLE=Dio - Detroit 06-08-03
DYEAR=2003
DGENRE=Hard Rock
TTITLE0=Killing The Dragon
TTITLE1=The Last In Line
TTITLE2=Stargazer
TTITLE3=Stand Up And Shout
TTITLE4=Drum Solo
TTITLE5=Rock and Roll
TTITLE6=The Mob Rules
TTITLE7=Dream Evil
TTITLE8=Guitar Solo
TTITLE9=Rainbow In The Dark
TTITLE10=Holy Diver
TTITLE11=Heaven and Hell
EXTD=
EXTT0=
EXTT1=
EXTT2=
EXTT3=
EXTT4=
EXTT5=
EXTT6=
EXTT7=
EXTT8=
EXTT9=
EXTT10=
EXTT11=
PLAYORDER=
